<?xml version="1.0" encoding="utf-8"?>
<!-- Generator: Adobe Illustrator 24.0.0, SVG Export Plug-In . SVG Version: 6.00 Build 0)  -->
<svg version="1.1" id="layer1" xmlns="http://www.w3.org/2000/svg" xmlns:xlink="http://www.w3.org/1999/xlink" x="0px" y="0px"
	 viewBox="0 0 2176 344" style="enable-background:new 0 0 2176 344;" xml:space="preserve">
<style type="text/css">
	.st0{fill:none;stroke:#1E1E1E;stroke-miterlimit:10;}
</style>
<g>
	<path class="st0" d="M865,145.5h-96.5c-2.4,0-4.7,2.2-4.7,4.7v36.3c0,2.4,2.2,4.6,4.7,4.6H817c0.8,0,1.4,0.6,1.4,1.4v30.9
		c0,35.9-14,49.9-49.9,49.9h-12.2c-35.9,0-49.9-14-49.9-49.9V120.1c0-18.2,3.7-30.3,11.5-38.2c7.9-8,20.1-11.7,38.4-11.7h12.2
		c27.2,0,42.4,9.1,47.8,28.8c0.3,1.2,1.5,5,4.7,5h42.8c1.4,0,2.8-0.7,3.7-1.7c0.7-0.8,1.1-1.8,1-2.7c-7.3-48-40.6-74.5-93.9-74.5
		h-24.4c-30.2,0-54,8.3-70.5,24.8c-16.6,16.5-25,40.1-25,70.3v103.5c0,60.7,34.8,95.5,95.5,95.5h24.4c60.7,0,95.5-34.8,95.5-95.5
		v-73.3C870,147.6,867.7,145.5,865,145.5L865,145.5z"/>
	<path class="st0" d="M153.5,25h-24.4c-60.7,0-95.5,34.8-95.5,95.5V224c0,30.2,8.4,53.8,25,70.3c16.5,16.4,40.3,24.8,70.5,24.8h24.4
		c53.3,0,86.6-26.5,93.9-74.5c0.1-0.9-0.2-1.9-1-2.7c-1-1.1-2.3-1.7-3.7-1.7h-42.8c-3.2,0-4.4,3.9-4.7,5
		c-5.4,19.7-20.6,28.8-47.8,28.8h-12.2c-18.3,0-30.5-3.7-38.4-11.7c-7.9-7.9-11.5-20.1-11.5-38.2v-24c0-0.8,0.6-1.4,1.4-1.4h157.2
		c2.7,0,5.1-2.1,5.1-4.7v-73.3C249,59.8,214.2,25,153.5,25L153.5,25z M197.3,151.5c0,0.8-0.6,1.4-1.4,1.4H86.7
		c-0.8,0-1.4-0.6-1.4-1.4v-30.9c0-35.9,14-49.9,49.9-49.9h12.2c35.9,0,49.9,14,49.9,49.9L197.3,151.5L197.3,151.5z"/>
	<path class="st0" d="M554.4,145.5h-96.5c-2.4,0-4.7,2.2-4.7,4.7v36.3c0,2.4,2.2,4.6,4.7,4.6h48.5c0.8,0,1.4,0.6,1.4,1.4v30.9
		c0,35.9-14,49.9-49.9,49.9h-12.2c-35.9,0-49.9-14-49.9-49.9V120.1c0-18.2,3.7-30.3,11.5-38.2c7.9-8,20.1-11.7,38.4-11.7h12.2
		c27.2,0,42.4,9.1,47.8,28.8c0.3,1.2,1.5,5,4.7,5h42.8c1.4,0,2.8-0.7,3.7-1.7c0.7-0.8,1.1-1.8,1-2.7c-7.3-48-40.6-74.5-93.9-74.5
		h-24.4c-30.3,0-54,8.3-70.5,24.8c-16.6,16.5-25,40.1-25,70.3v103.5c0,60.7,34.8,95.5,95.5,95.5H464c60.7,0,95.5-34.8,95.5-95.5
		v-73.3C559.5,147.6,557.2,145.5,554.4,145.5L554.4,145.5z"/>
	<path class="st0" d="M1216.7,27.9h-42.8c-2.5,0-5.1,2.3-5.1,4.6v0.1l-15.1,182.5c-0.1,0.7-0.6,1.2-1.3,1.3c0,0-0.1,0-0.2,0
		c-0.6,0-1.2-0.4-1.4-1l-27.7-88.7c-1-2.6-4-4.7-6.8-4.7h-47.7c-2.6,0-5.3,2.1-5.9,4.6v0.1l-28.1,88.8c-0.2,0.6-0.8,1-1.4,1
		c0,0-0.1,0-0.2,0c-0.7-0.1-1.2-0.6-1.3-1.3l-15.4-182.5v-0.1c0-2.3-2.5-4.6-5.1-4.6h-42.4c-1.1,0-2.1,0.4-2.9,1.3
		c-0.8,0.8-1.1,2-1,3.2l30.5,278.6c0.3,2.5,2.9,4.8,5.5,4.8h45.6c2.6,0,5.3-2.1,5.9-4.6l38.7-128c0.2-0.6,0.8-1,1.4-1s1.2,0.4,1.4,1
		l38.3,127.9c0.6,2.5,3.6,4.7,6.4,4.7h45.6c2.6,0,5.1-2.3,5.1-4.7c0,0,0-0.1,0-0.2l30.9-278.5c0-2.3-1.4-4.6-3.9-4.6L1216.7,27.9z"
		/>
	<path class="st0" d="M2111.9,32.7c-0.3-2.5-2.9-4.8-5.5-4.8h-45.6c-2.7,0-5.3,2.1-5.9,4.6l-38.7,128c-0.2,0.6-0.8,1-1.4,1
		s-1.2-0.4-1.4-1L1975,32.6c-0.6-2.5-3.6-4.6-6.4-4.6H1923c-2.6,0-5.1,2.3-5.1,4.6v0.2L1887,311.2c0,2.3,1.4,4.6,3.9,4.6h42.8
		c2.6,0,5.1-2.3,5.1-4.7V311l15.1-182.5c0-0.7,0.6-1.2,1.3-1.3c0,0,0.1,0,0.2,0c0.6,0,1.2,0.4,1.4,1l27.7,88.8
		c1,2.6,4.1,4.7,6.8,4.7h47.7c2.6,0,5.3-2.1,5.9-4.6c0,0,0,0,0-0.1l28.1-88.8c0.2-0.6,0.8-1,1.4-1c0,0,0.1,0,0.2,0
		c0.7,0.1,1.2,0.6,1.3,1.3l15.5,182.5v0.1c0,2.3,2.5,4.7,5.1,4.7h42.3c1.1,0,2.1-0.5,2.9-1.3c0.8-0.9,1.1-2,1-3.2L2111.9,32.7
		L2111.9,32.7z"/>
	<path class="st0" d="M1417.9,25h-24.4c-30.3,0-54,8.3-70.5,24.8c-16.6,16.5-25,40.1-25,70.3v103.5c0,60.7,34.8,95.5,95.5,95.5h24.4
		c60.7,0,95.5-34.8,95.5-95.5V120.1c0-30.2-8.4-53.8-25-70.3C1471.8,33.4,1448.1,25,1417.9,25z M1461.7,223.6
		c0,35.9-14,49.9-49.9,49.9h-12.2c-35.9,0-49.9-14-49.9-49.9V120.1c0-18.2,3.7-30.3,11.5-38.2c7.9-8,20.1-11.7,38.4-11.7h12.2
		c18.3,0,30.5,3.7,38.4,11.7c7.9,7.9,11.5,20.1,11.5,38.2V223.6z"/>
	<path class="st0" d="M1760.3,225.9c-0.2-0.4-0.2-0.8-0.1-1.2s0.4-0.7,0.7-0.9c29.3-14.5,44.8-44,44.8-85.5v-15.1
		c0-30.4-8.3-54.2-24.8-70.7c-16.4-16.5-40.1-24.8-70.3-24.8h-115.3c-2.4,0-4.6,2.2-4.6,4.6v278.6c0,2.4,2.2,4.7,4.6,4.7h42.4
		c2.4,0,4.7-2.2,4.7-4.7v-75.7c0-0.8,0.6-1.4,1.4-1.4h61.5c0.5,0,1,0.3,1.2,0.7l43.6,75.8c0,0,0,0,0,0.1c1.2,2.4,3.3,5.3,6,5.3h50.9
		c1,0,1.7-0.4,2.1-1c0.5-0.8,0.4-1.9-0.2-3L1760.3,225.9L1760.3,225.9z M1754.1,138.4c0,18.3-3.7,30.5-11.5,38.3
		c-7.8,7.9-19.9,11.5-38,11.5h-60.7c-0.8,0-1.4-0.6-1.4-1.4v-112c0-0.8,0.6-1.4,1.4-1.4h60.7c18.2,0,30.3,3.7,38.2,11.5
		c7.9,7.9,11.7,20.1,11.7,38.4L1754.1,138.4z"/>
</g>
</svg>
