<svg width="2781" height="344" viewBox="0 0 2781 344" fill="none" xmlns="http://www.w3.org/2000/svg">
<path d="M166.1 319.2C141.583 319.2 120.164 315.071 101.841 306.813C83.5176 298.296 68.1624 287.07 55.775 273.134C43.6457 258.941 34.4842 243.069 28.2905 225.521C22.0968 207.972 19 190.036 19 171.713C19 153.39 22.0968 135.583 28.2905 118.292C34.4842 100.744 43.6457 85.0013 55.775 71.0655C68.1624 57.1297 83.5176 46.0327 101.841 37.7745C120.164 29.2582 141.583 25 166.1 25C190.359 25 211.649 29.2582 229.972 37.7745C248.295 46.0327 263.522 57.1297 275.651 71.0655C288.038 85.0013 297.329 100.744 303.523 118.292C309.716 135.583 312.813 153.39 312.813 171.713C312.813 190.036 309.716 207.972 303.523 225.521C297.329 243.069 288.038 258.941 275.651 273.134C263.522 287.07 248.295 298.296 229.972 306.813C211.649 315.071 190.359 319.2 166.1 319.2ZM166.1 259.199C182.875 259.199 196.939 254.941 208.295 246.424C219.908 237.908 228.553 227.069 234.231 213.907C240.166 200.488 243.134 186.423 243.134 171.713C243.134 157.261 240.166 143.454 234.231 130.293C228.553 116.873 219.908 105.905 208.295 97.3887C196.939 88.8724 182.875 84.6142 166.1 84.6142C149.067 84.6142 134.745 88.8724 123.131 97.3887C111.776 105.905 103.26 116.873 97.5824 130.293C91.9049 143.454 89.0661 157.261 89.0661 171.713C89.0661 186.423 91.9049 200.488 97.5824 213.907C103.26 227.069 111.776 237.908 123.131 246.424C134.745 254.941 149.067 259.199 166.1 259.199Z" fill="white"/>
<path d="M470.017 319.2C454.791 319.2 440.081 317.135 425.887 313.006C411.693 308.619 398.919 301.78 387.564 292.49C376.467 283.199 367.563 271.07 360.853 256.102C354.402 241.134 351.176 223.069 351.176 201.907V28.8711H418.145V201.907C418.145 217.133 422.274 230.037 430.532 240.618C439.049 250.94 452.21 256.102 470.017 256.102C487.824 256.102 500.857 250.94 509.115 240.618C517.631 230.037 521.889 217.133 521.889 201.907V28.8711H588.859V201.907C588.859 223.069 585.504 241.134 578.794 256.102C572.342 271.07 563.439 283.199 552.084 292.49C540.986 301.78 528.341 308.619 514.147 313.006C499.953 317.135 485.243 319.2 470.017 319.2Z" fill="white"/>
<path d="M638.481 315.329V28.8711H759.645C780.806 28.8711 799.258 32.4841 815.001 39.71C830.743 46.936 842.872 57.2588 851.389 70.6784C859.905 84.0981 864.163 100.098 864.163 118.679C864.163 137.777 859.518 154.164 850.227 167.842C841.195 181.52 828.42 191.842 811.904 198.81L871.131 315.329H797.194L744.16 208.101H705.45V315.329H638.481ZM758.87 86.5497H705.45V154.293H758.87C770.484 154.293 779.774 151.196 786.742 145.003C793.71 138.809 797.194 130.68 797.194 120.615C797.194 110.292 793.71 102.034 786.742 95.8403C779.774 89.6466 770.484 86.5497 758.87 86.5497Z" fill="white"/>
<path d="M1008.57 315.329V28.8711H1075.54V139.97H1178.51V28.8711H1245.48V315.329H1178.51V197.262H1075.54V315.329H1008.57Z" fill="white"/>
<path d="M1295.12 315.329V28.8711H1362.09V315.329H1295.12Z" fill="white"/>
<path d="M1522.27 319.2C1502.91 319.2 1486.4 317.006 1472.72 312.619C1459.3 307.974 1448.07 302.038 1439.04 294.812C1430.27 287.586 1423.17 279.973 1417.75 271.973C1412.59 263.973 1408.72 256.36 1406.14 249.134C1403.82 241.908 1402.27 236.101 1401.49 231.714C1400.72 227.069 1400.33 224.746 1400.33 224.746H1468.07C1468.07 224.746 1468.59 226.811 1469.62 230.94C1470.66 234.811 1472.98 239.327 1476.59 244.489C1480.46 249.65 1486.14 254.295 1493.62 258.424C1501.37 262.296 1511.69 264.231 1524.59 264.231C1540.59 264.231 1552.08 261.005 1559.04 254.553C1566.27 248.102 1569.88 240.747 1569.88 232.488C1569.88 225.004 1567.17 219.069 1561.75 214.682C1556.59 210.294 1548.08 206.939 1536.21 204.617L1497.88 198.036C1481.88 195.197 1466.78 190.681 1452.59 184.487C1438.65 178.294 1427.3 169.519 1418.53 158.164C1410.01 146.809 1405.75 132.099 1405.75 114.034C1405.75 96.2274 1410.14 80.7432 1418.91 67.5816C1427.94 54.1619 1440.72 43.7101 1457.24 36.2261C1473.75 28.742 1493.24 25 1515.69 25C1533.24 25 1548.21 27.1936 1560.59 31.5808C1572.98 35.7099 1583.3 41.1294 1591.56 47.8392C1599.82 54.291 1606.4 61.2589 1611.3 68.7429C1616.47 75.9689 1620.21 82.9368 1622.53 89.6466C1625.11 96.3564 1626.79 101.776 1627.56 105.905C1628.34 110.034 1628.72 112.099 1628.72 112.099H1562.53C1562.53 112.099 1562.01 110.55 1560.98 107.453C1560.21 104.099 1558.14 100.356 1554.79 96.2274C1551.69 91.8402 1546.92 87.9691 1540.46 84.6142C1534.01 81.2593 1525.24 79.5818 1514.14 79.5818C1498.66 79.5818 1487.69 82.9368 1481.24 89.6466C1474.78 96.0983 1471.56 102.937 1471.56 110.163C1471.56 118.163 1475.04 124.228 1482.01 128.357C1489.24 132.486 1498.27 135.583 1509.11 137.648L1549.75 144.616C1565.5 147.454 1579.95 152.229 1593.11 158.938C1606.27 165.648 1616.85 174.681 1624.85 186.036C1632.85 197.391 1636.85 211.456 1636.85 228.23C1636.85 245.521 1632.34 261.134 1623.3 275.07C1614.53 288.748 1601.63 299.587 1584.59 307.587C1567.56 315.329 1546.79 319.2 1522.27 319.2Z" fill="white"/>
<path d="M1742.62 315.329V86.9368H1655.52V28.8711H1897.08V86.9368H1809.98V315.329H1742.62Z" fill="white"/>
<path d="M2057.4 319.2C2032.88 319.2 2011.46 315.071 1993.14 306.813C1974.81 298.296 1959.46 287.07 1947.07 273.134C1934.94 258.941 1925.78 243.069 1919.59 225.521C1913.39 207.972 1910.3 190.036 1910.3 171.713C1910.3 153.39 1913.39 135.583 1919.59 118.292C1925.78 100.744 1934.94 85.0013 1947.07 71.0655C1959.46 57.1297 1974.81 46.0327 1993.14 37.7745C2011.46 29.2582 2032.88 25 2057.4 25C2081.66 25 2102.95 29.2582 2121.27 37.7745C2139.59 46.0327 2154.82 57.1297 2166.95 71.0655C2179.34 85.0013 2188.63 100.744 2194.82 118.292C2201.01 135.583 2204.11 153.39 2204.11 171.713C2204.11 190.036 2201.01 207.972 2194.82 225.521C2188.63 243.069 2179.34 258.941 2166.95 273.134C2154.82 287.07 2139.59 298.296 2121.27 306.813C2102.95 315.071 2081.66 319.2 2057.4 319.2ZM2057.4 259.199C2074.17 259.199 2088.24 254.941 2099.59 246.424C2111.21 237.908 2119.85 227.069 2125.53 213.907C2131.46 200.488 2134.43 186.423 2134.43 171.713C2134.43 157.261 2131.46 143.454 2125.53 130.293C2119.85 116.873 2111.21 105.905 2099.59 97.3887C2088.24 88.8724 2074.17 84.6142 2057.4 84.6142C2040.36 84.6142 2026.04 88.8724 2014.43 97.3887C2003.07 105.905 1994.56 116.873 1988.88 130.293C1983.2 143.454 1980.36 157.261 1980.36 171.713C1980.36 186.423 1983.2 200.488 1988.88 213.907C1994.56 227.069 2003.07 237.908 2014.43 246.424C2026.04 254.941 2040.36 259.199 2057.4 259.199Z" fill="white"/>
<path d="M2242.47 315.329V28.8711H2363.64C2384.8 28.8711 2403.25 32.4841 2418.99 39.71C2434.74 46.936 2446.86 57.2588 2455.38 70.6784C2463.9 84.0981 2468.16 100.098 2468.16 118.679C2468.16 137.777 2463.51 154.164 2454.22 167.842C2445.19 181.52 2432.41 191.842 2415.9 198.81L2475.12 315.329H2401.19L2348.15 208.101H2309.44V315.329H2242.47ZM2362.86 86.5497H2309.44V154.293H2362.86C2374.48 154.293 2383.77 151.196 2390.73 145.003C2397.7 138.809 2401.19 130.68 2401.19 120.615C2401.19 110.292 2397.7 102.034 2390.73 95.8403C2383.77 89.6466 2374.48 86.5497 2362.86 86.5497Z" fill="white"/>
<path d="M2592.24 315.329V218.553L2491.21 28.8711H2564.37L2625.53 150.035L2686.31 28.8711H2759.86L2659.21 218.553V315.329H2592.24Z" fill="white"/>
</svg>
