<svg width="109" height="111" viewBox="0 0 109 111" fill="none" xmlns="http://www.w3.org/2000/svg">
<g id="Vector">
<path d="M55.8915 47.3483H53.4766C48.0436 47.3483 45.1448 44.4105 45.1448 38.9775V34.1478C45.1448 28.7148 48.0436 25.777 53.4766 25.777H55.8915C61.3658 25.777 64.2623 28.7148 64.2623 34.1478V38.9775C64.2623 44.4105 61.4047 47.3483 55.8915 47.3483ZM61.6066 34.1454C61.6066 30.0403 59.7146 28.1896 55.6094 28.1896H53.7977C49.6514 28.1896 47.8005 30.0013 47.8005 34.1454V38.9752C47.8005 43.0804 49.6514 44.9311 53.7977 44.9311H55.6094C59.7146 44.9311 61.5653 43.1194 61.5653 38.9752L61.6066 34.1454Z" fill="#434343"/>
<path d="M55.8915 22.5411H53.4766C48.0436 22.5411 45.1448 19.6033 45.1448 14.1703V9.34048C45.1448 3.90752 48.0436 0.969727 53.4766 0.969727H55.8915C61.3658 0.969727 64.2623 3.90752 64.2623 9.34048V14.1703C64.2623 19.6033 61.4047 22.5411 55.8915 22.5411ZM61.6066 9.34048C61.6066 5.23537 59.7146 3.38234 55.6094 3.38234H53.7977C49.6514 3.38234 47.8005 5.19409 47.8005 9.34048V14.1703C47.8005 18.2753 49.6514 20.1262 53.7977 20.1262H55.6094C59.7146 20.1262 61.5653 18.3143 61.5653 14.1703L61.6066 9.34048Z" fill="#434343"/>
<path d="M61.6548 70.5479C61.8567 70.3851 62.0195 70.2246 62.1409 70.0618C63.5584 68.6445 64.2876 66.5391 64.2876 63.7848V59.0077C64.2876 56.2534 63.5995 54.148 62.1409 52.7308C60.7237 51.2722 58.6184 50.5842 55.8641 50.5842H53.4331C50.7613 50.5842 48.6538 51.3135 47.1975 52.7308C45.739 54.1872 45.0509 56.2534 45.0509 59.0077V63.8261C45.0509 66.5391 45.739 68.6445 47.2388 70.1031C47.3602 70.2246 47.5231 70.3873 47.6836 70.5502C45.8605 71.4011 44.7275 73.1418 44.7275 75.247V75.8548C44.7275 76.2193 45.0096 76.4624 45.3353 76.4624H46.8742C47.1586 76.4624 47.4405 76.2193 47.4405 75.8548V75.247C47.4405 73.0202 49.383 72.2519 51.0847 72.2519H58.2514C59.9119 72.2519 61.8957 73.0225 61.8957 75.247V75.8548C61.8957 76.2193 62.1388 76.4624 62.5033 76.4624H63.9619C64.3266 76.4624 64.5697 76.2193 64.5697 75.8548V75.247C64.5697 73.1005 63.4758 71.4011 61.6548 70.5502V70.5479ZM61.5746 63.8651C61.5746 68.0367 59.7123 69.8599 55.582 69.8599H53.7588C49.5872 69.8599 47.7249 67.9977 47.7249 63.8651V59.0054C47.7249 54.8338 49.5872 53.0105 53.7588 53.0105H55.582C59.7123 53.0105 61.6159 54.8728 61.6159 59.0054L61.5746 63.8651Z" fill="#434343"/>
<path d="M32.5589 32.3405C32.88 32.3405 33.1231 32.0172 33.1231 31.7374V28.396C33.1231 22.9631 30.2243 20.0643 24.7523 20.0643H14.6088C14.2465 20.0643 14.0057 20.3051 14.0057 20.6674V23.9263C14.0057 29.4417 16.9045 32.3382 22.3375 32.3382H32.5612L32.5589 32.3405ZM16.6614 23.9285V22.4791H24.4702C28.5754 22.4791 30.4674 24.2909 30.4674 28.4373L30.4261 29.9257H22.5783C18.4732 29.9257 16.6614 28.075 16.6614 23.9285Z" fill="#434343"/>
<path d="M22.8534 53.7262H24.3832C26.2751 53.7262 27.8437 52.8822 28.7313 51.3524C29.6969 52.5198 31.1049 53.123 32.7149 53.123H33.318C36.4966 53.123 38.712 50.7081 38.712 47.2061V10.9711C38.7143 7.83145 36.2604 5.61836 32.7171 5.61836H30.4261C26.8851 5.61836 24.4289 7.83145 24.4289 11.0123V12.8631C24.4289 16.0439 26.8851 18.257 30.4261 18.257H32.6736C34.3248 18.257 36.2971 19.062 36.2971 21.2751V46.885C36.2971 48.534 35.5334 50.4673 33.318 50.4673H32.7149C30.5017 50.4673 29.7771 48.534 29.7771 46.885V40.6058C29.7771 37.0649 27.5639 34.6087 24.3832 34.6087H22.8534C19.7138 34.6087 17.4595 37.0626 17.4595 40.6058V47.7703C17.4595 51.3111 19.6725 53.7262 22.8534 53.7262ZM36.0999 16.8054C35.0953 16.2022 33.8868 15.7985 32.4786 15.7985H30.7082C29.057 15.7985 27.0869 15.0739 27.0869 12.8608V10.9688C27.0869 8.75567 29.0593 8.03097 30.7082 8.03097H32.4786C34.1276 8.03097 36.0999 8.79466 36.0999 11.01V16.8054ZM19.8743 40.8856C19.8743 39.2344 20.638 37.2644 22.8534 37.2644H24.3832C26.5962 37.2644 27.3622 39.2367 27.3622 40.8856V47.4859C27.3622 49.0958 26.5985 51.0682 24.3832 51.0682H22.8534C20.6403 51.0682 19.8743 49.0958 19.8743 47.4859V40.8856Z" fill="#434343"/>
<path d="M94.3879 20.0665H84.2467C78.7725 20.0665 75.8759 22.9654 75.8759 28.3983V31.7397C75.8759 32.0218 76.1168 32.3428 76.44 32.3428H86.6639C92.0969 32.3428 94.9955 29.444 94.9955 23.9308V20.6719C94.9955 20.3097 94.7549 20.0689 94.3925 20.0689L94.3879 20.0665ZM92.3354 23.9308C92.3354 28.0773 90.5235 29.9279 86.4185 29.9279H78.5706L78.5316 28.4396C78.5316 24.2931 80.4236 22.4814 84.5287 22.4814H92.3377V23.9308H92.3354Z" fill="#434343"/>
<path d="M86.1433 34.6087H84.6135C81.4326 34.6087 79.2196 37.0626 79.2196 40.6058V46.885C79.2196 48.5339 78.4948 50.4673 76.2818 50.4673H75.6786C73.4655 50.4673 72.6996 48.5339 72.6996 46.885V21.2728C72.6996 19.0597 74.6719 18.2547 76.323 18.2547H78.5706C82.1114 18.2547 84.5676 16.0416 84.5676 12.8608V11.01C84.5676 7.82916 82.1114 5.61607 78.5706 5.61607H76.2794C72.7386 5.61607 70.2824 7.82916 70.2824 10.9688V47.2061C70.2846 50.7081 72.5001 53.123 75.6786 53.123H76.2818C77.8918 53.123 79.2998 52.5198 80.2677 51.3524C81.1528 52.8822 82.7216 53.7262 84.6135 53.7262H86.1433C89.3241 53.7262 91.5371 51.3112 91.5371 47.7703V40.6058C91.5371 37.0649 89.2828 34.6087 86.1433 34.6087ZM72.8968 11.01C72.8968 8.79696 74.8691 8.03097 76.5202 8.03097H78.2908C79.942 8.03097 81.9142 8.75567 81.9142 10.9688V12.8608C81.9142 15.0739 79.942 15.7985 78.2908 15.7985H76.5202C75.1122 15.7985 73.9035 16.1999 72.8968 16.8054V11.01ZM89.1222 47.4859C89.1222 49.0958 88.3564 51.0682 86.1433 51.0682H84.6135C82.4005 51.0682 81.6344 49.0958 81.6344 47.4859V40.8856C81.6344 39.2344 82.3982 37.2644 84.6135 37.2644H86.1433C88.3564 37.2644 89.1222 39.2367 89.1222 40.8856V47.4859Z" fill="#434343"/>
<path d="M86.0791 56.0745H84.8704C81.6919 56.0745 79.4764 58.5307 79.4764 62.0717V67.1423H75.2911C73.078 67.1423 72.312 65.4911 72.312 63.8834C72.312 62.1932 73.0757 60.5419 75.2911 60.5419H75.6145C75.9769 60.5419 76.2177 60.3011 76.2177 59.9389V58.4894C76.2177 58.127 75.9356 57.8862 75.6145 57.8862H75.2911C72.1125 57.8862 69.8994 60.3424 69.8994 63.8834C69.8994 67.4244 72.1538 69.8003 75.2911 69.8003H79.4764V70.1214C79.4764 71.7313 80.0705 74.9994 77.1601 76.4074C76.9538 76.4831 74.2659 77.5931 70.92 78.9508C66.3057 80.8198 59.8156 83.4572 54.4972 85.6176C49.1789 83.4572 42.6887 80.8198 38.0745 78.9508C34.7285 77.5931 32.3709 76.6413 32.1645 76.5633C28.752 75.2379 29.518 71.7313 29.518 70.1191V69.798H33.7033C36.843 69.798 39.0973 67.3831 39.0973 63.8811C39.0973 60.3791 36.8843 57.8839 33.7033 57.8839H33.3823C33.0612 57.8839 32.7791 58.1247 32.7791 58.4871V59.9366C32.7791 60.2988 33.0199 60.5396 33.3823 60.5396H33.7033C35.9164 60.5396 36.6824 62.1909 36.6824 63.8811C36.6824 65.5712 35.9187 67.14 33.7033 67.14H29.518V62.0694C29.518 58.5284 27.3048 56.0722 24.124 56.0722H22.9177C19.778 56.0722 17.526 58.5284 17.526 62.0694V63.8811C17.526 67.3831 19.7391 69.798 22.9177 69.798H27.103V70.4012C27.103 73.0476 26.8233 76.7721 30.2862 78.311C30.3435 78.3546 30.4055 78.3889 30.472 78.4142L51.1306 86.8353C47.5781 88.2802 45.1151 89.2801 45.1151 89.2801C44.8284 89.4038 44.5372 89.7295 44.5372 90.1126V91.4656C44.5372 91.7844 44.7481 92.0161 45.0372 92.0161C45.1128 92.0161 45.1885 91.9999 45.2595 91.9702L54.4972 88.2044L63.7349 91.9702C63.806 91.9999 63.8816 92.0161 63.9573 92.0161C64.2463 92.0161 64.4572 91.7844 64.4572 91.4656V90.1126C64.4572 89.7272 64.1683 89.4015 63.8816 89.2801C63.8816 89.2801 61.4185 88.2779 57.8638 86.8353L78.5224 78.4142C78.589 78.3889 78.6509 78.3546 78.7105 78.311C81.8936 76.7721 81.8936 74.2035 81.8936 70.4012V69.798H86.0791C89.2577 69.798 91.4731 67.3831 91.4731 63.8811V62.0694C91.4731 58.5284 89.2187 56.0722 86.0791 56.0722V56.0745ZM27.103 67.1423H22.9177C20.7046 67.1423 19.9386 65.2503 19.9386 63.56V62.3515C19.9386 60.7025 20.7023 58.7302 22.9177 58.7302H24.124C26.2981 58.7302 27.103 60.7025 27.103 62.3515V67.1423ZM89.0582 63.56C89.0582 65.2503 88.2921 67.1423 86.0791 67.1423H81.8936V62.3515C81.8936 60.7025 82.6986 58.7302 84.8727 58.7302H86.0814C88.2944 58.7302 89.0605 60.7025 89.0605 62.3515V63.56H89.0582Z" fill="#434343"/>
<path d="M42.9736 101.136H37.9841C37.8576 101.136 37.7436 101.252 37.7436 101.376V103.249C37.7436 103.376 37.8576 103.49 37.9841 103.49H40.4903C40.5308 103.49 40.5636 103.523 40.5636 103.566V105.166C40.5636 107.021 39.8396 107.745 37.9841 107.745H37.3538C35.4983 107.745 34.7743 107.021 34.7743 105.166V99.8194C34.7743 98.8803 34.9641 98.2524 35.3692 97.8424C35.7792 97.4296 36.4096 97.2398 37.3538 97.2398H37.9841C39.3891 97.2398 40.1764 97.7131 40.4548 98.7259C40.4701 98.7891 40.5333 98.9866 40.6978 98.9866H42.9078C42.9787 98.9866 43.052 98.951 43.1001 98.8954C43.1382 98.8524 43.1559 98.8017 43.1508 98.7536C42.7761 96.2703 41.0522 94.9033 38.298 94.9033H37.0348C35.4729 94.9033 34.2452 95.3336 33.3896 96.1843C32.534 97.0348 32.0985 98.2575 32.0985 99.8168V105.163C32.0985 108.3 33.8985 110.1 37.0348 110.1H38.298C41.4345 110.1 43.2343 108.3 43.2343 105.163V101.374C43.2343 101.242 43.1129 101.133 42.9736 101.133V101.136Z" fill="#434343"/>
<path d="M6.19948 94.9033H4.93629C1.79985 94.9033 0 96.7006 0 99.8396V105.186C0 106.745 0.432876 107.968 1.29103 108.821C2.14665 109.672 3.37187 110.102 4.93629 110.102H6.19948C8.95368 110.102 10.675 108.733 11.0522 106.249C11.0573 106.201 11.0396 106.151 11.0016 106.11C10.9535 106.054 10.8801 106.021 10.8092 106.021H8.59928C8.43473 106.021 8.37145 106.219 8.35626 106.282C8.07526 107.297 7.29052 107.771 5.88305 107.771H5.25273C4.3085 107.771 3.67818 107.578 3.26808 107.166C2.86052 106.755 2.6732 106.128 2.6732 105.188V103.946C2.6732 103.905 2.70611 103.872 2.74913 103.872H10.8725C11.0143 103.872 11.1358 103.761 11.1358 103.632V99.8422C11.1358 96.7057 9.33591 94.9059 6.19948 94.9059V94.9033ZM8.46258 101.439C8.46258 101.48 8.42968 101.515 8.38917 101.515H2.7466C2.70611 101.515 2.67067 101.483 2.67067 101.439V99.8396C2.67067 97.984 3.39465 97.2601 5.2502 97.2601H5.88052C7.73605 97.2601 8.46005 97.984 8.46005 99.8396V101.439H8.46258Z" fill="#434343"/>
<path d="M26.9218 101.136H21.9323C21.8057 101.136 21.6918 101.252 21.6918 101.376V103.249C21.6918 103.376 21.8057 103.49 21.9323 103.49H24.4385C24.479 103.49 24.5144 103.523 24.5144 103.566V105.166C24.5144 107.021 23.7904 107.745 21.9348 107.745H21.3046C19.449 107.745 18.725 107.021 18.725 105.166V99.8194C18.725 98.8803 18.9148 98.2524 19.3199 97.8424C19.7299 97.4296 20.3604 97.2398 21.3046 97.2398H21.9348C23.3397 97.2398 24.1271 97.7131 24.4055 98.7259C24.4207 98.7891 24.4841 98.9866 24.6485 98.9866H26.8585C26.9269 98.9866 27.0027 98.951 27.0509 98.8954C27.0888 98.8524 27.1066 98.8017 27.1015 98.7536C26.7269 96.2703 25.003 94.9033 22.2488 94.9033H20.9855C19.4211 94.9033 18.196 95.3336 17.3404 96.1843C16.4846 97.0348 16.0493 98.2575 16.0493 99.8168V105.163C16.0493 108.3 17.8492 110.1 20.9855 110.1H22.2488C25.3853 110.1 27.185 108.3 27.185 105.163V101.374C27.185 101.242 27.066 101.133 26.9218 101.133V101.136Z" fill="#434343"/>
<path d="M61.1519 95.0501H58.9419C58.8102 95.0501 58.6786 95.1692 58.6786 95.2906V95.2957L57.8989 104.728C57.8963 104.763 57.8684 104.791 57.8331 104.796H57.8254C57.7926 104.796 57.7647 104.776 57.7547 104.743L56.3244 100.156C56.2738 100.019 56.1168 99.9105 55.9724 99.9105H53.5094C53.3726 99.9105 53.2361 100.017 53.2031 100.148V100.154L51.75 104.743C51.7398 104.773 51.7121 104.796 51.6791 104.796H51.6716C51.6361 104.791 51.6082 104.763 51.6058 104.728L50.8059 95.2957V95.2906C50.8059 95.1692 50.6768 95.0501 50.5426 95.0501H48.3529C48.2947 95.0501 48.2415 95.0729 48.2035 95.1159C48.1631 95.159 48.1452 95.2198 48.1554 95.2805L49.735 109.682C49.7503 109.811 49.8868 109.932 50.0186 109.932H52.3779C52.5145 109.932 52.6512 109.826 52.6842 109.694L54.684 103.08C54.694 103.049 54.7219 103.027 54.7549 103.027C54.7877 103.027 54.8182 103.047 54.8257 103.08L56.8054 109.689C56.8382 109.821 56.9901 109.93 57.1344 109.93H59.4912C59.6228 109.93 59.7544 109.811 59.7544 109.689V109.682L61.3542 95.2856C61.3542 95.1666 61.2859 95.0476 61.1542 95.0476L61.1519 95.0501Z" fill="#434343"/>
<path d="M107.419 95.3008C107.404 95.1717 107.267 95.0527 107.135 95.0527H104.778C104.642 95.0527 104.505 95.159 104.472 95.2906L102.472 101.905C102.462 101.936 102.434 101.958 102.401 101.958C102.369 101.958 102.338 101.936 102.331 101.905L100.351 95.2957C100.318 95.1666 100.164 95.0552 100.022 95.0552H97.6626C97.531 95.0552 97.3994 95.1742 97.3994 95.2957V95.3033L95.7996 109.7C95.7996 109.818 95.8703 109.938 95.9996 109.938H98.2094C98.3436 109.938 98.4726 109.818 98.4726 109.697V109.692L99.2524 100.26C99.2524 100.224 99.2828 100.197 99.3182 100.191H99.3258C99.3587 100.191 99.3866 100.212 99.3968 100.245L100.827 104.832C100.88 104.966 101.037 105.077 101.179 105.077H103.642C103.779 105.077 103.915 104.971 103.948 104.839V104.834L105.401 100.245C105.411 100.214 105.442 100.191 105.472 100.191H105.48C105.515 100.194 105.543 100.224 105.546 100.26L106.345 109.692V109.697C106.345 109.818 106.475 109.938 106.609 109.938H108.798C108.857 109.938 108.91 109.915 108.948 109.872C108.986 109.826 109.006 109.768 108.998 109.707L107.419 95.3059V95.3008Z" fill="#434343"/>
<path d="M71.5509 94.9033H70.2877C68.7233 94.9033 67.498 95.3336 66.6424 96.1843C65.7842 97.0348 65.3514 98.2575 65.3514 99.8168V105.163C65.3514 108.3 67.1487 110.1 70.2877 110.1H71.5509C74.6873 110.1 76.4872 108.3 76.4872 105.163V99.8168C76.4872 98.2575 76.0542 97.0348 75.1961 96.1843C74.3405 95.3336 73.1154 94.9033 71.5509 94.9033ZM73.814 105.166C73.814 107.021 73.09 107.745 71.2345 107.745H70.6042C68.7486 107.745 68.0247 107.021 68.0247 105.166V99.8194C68.0247 98.8803 68.2145 98.2524 68.6196 97.8424C69.0296 97.4296 69.6598 97.2398 70.6042 97.2398H71.2345C72.1786 97.2398 72.8091 97.4322 73.2191 97.8424C73.6242 98.2524 73.814 98.8803 73.814 99.8194V105.166Z" fill="#434343"/>
<path d="M89.2507 105.287C89.2405 105.27 89.2379 105.249 89.2456 105.229C89.2507 105.211 89.2658 105.194 89.2835 105.184C90.7998 104.437 91.5998 102.908 91.5998 100.766V99.9864C91.5998 98.4145 91.1695 97.1866 90.3188 96.3336C89.4709 95.4831 88.2481 95.0501 86.6837 95.0501H80.7247C80.5982 95.0501 80.4842 95.164 80.4842 95.2906V109.689C80.4842 109.816 80.5982 109.93 80.7247 109.93H82.9144C83.041 109.93 83.1549 109.816 83.1549 109.689V105.773C83.1549 105.733 83.1879 105.7 83.2284 105.7H86.4079C86.4356 105.7 86.4584 105.715 86.4711 105.738L88.724 109.654C88.724 109.654 88.724 109.654 88.724 109.659C88.7874 109.783 88.8912 109.932 89.0354 109.932H91.6681C91.7188 109.932 91.7593 109.915 91.7795 109.882C91.8049 109.844 91.7998 109.786 91.7719 109.727L89.2481 105.287H89.2507ZM88.9265 100.769C88.9265 101.713 88.7393 102.343 88.3342 102.751C87.9317 103.158 87.3065 103.346 86.3672 103.346H83.2309C83.1903 103.346 83.1575 103.313 83.1575 103.27V97.4803C83.1575 97.4398 83.1903 97.4043 83.2309 97.4043H86.3672C87.3065 97.4043 87.9342 97.5942 88.3444 97.9992C88.7544 98.4094 88.9468 99.0396 88.9468 99.9838L88.9265 100.764V100.769Z" fill="#434343"/>
</g>
</svg>
